<svg preserveAspectRatio="xMidYMid meet" data-bbox="53.5 36.5 93 127" viewBox="53.5 36.5 93 127" height="200" width="200" xmlns="http://www.w3.org/2000/svg" data-type="color" role="img" aria-labelledby="svgcid-gmf1fm2k4sgu"><defs><style>#comp-kfw8hs6p svg [data-color="1"] {fill: #935a4b;}</style></defs><title id="svgcid-gmf1fm2k4sgu"></title>
    <g>
        <path d="M99.999 163.5l-3.25-3.895C94.986 157.487 53.5 107.468 53.5 82.916 53.5 57.323 74.359 36.5 99.999 36.5c25.644 0 46.501 20.823 46.501 46.416 0 24.551-41.483 74.571-43.252 76.688l-3.249 3.896zm0-118.56c-20.978 0-38.046 17.036-38.046 37.977 0 16.359 25.019 51.015 38.046 67.305 13.029-16.29 38.048-50.946 38.048-67.305 0-20.942-17.068-37.977-38.048-37.977z" fill="#935a4b" data-color="1"></path>
        <path d="M99.999 101.658c-10.351 0-18.775-8.407-18.775-18.741 0-10.335 8.424-18.743 18.775-18.743 10.353 0 18.777 8.408 18.777 18.743 0 10.333-8.424 18.741-18.777 18.741zm0-29.046c-5.69 0-10.32 4.621-10.32 10.304 0 5.68 4.63 10.303 10.32 10.303 5.692 0 10.324-4.622 10.324-10.303 0-5.682-4.632-10.304-10.324-10.304z" fill="#935a4b" data-color="1"></path>
    </g>
</svg>