<svg style="fill: #935a4b;" preserveAspectRatio="xMidYMid meet" data-bbox="3 3 386.9 387" viewBox="3 3 386.9 387" xmlns="http://www.w3.org/2000/svg" data-type="shape" role="img">
    <g>
        <path d="M196.5 390C89.8 390 3 303.2 3 196.5S89.8 3 196.5 3c51.7.1 100.2 20.2 136.7 56.7 36.5 36.5 56.7 85.1 56.7 136.7C390 303.2 303.2 390 196.5 390zm0-71.2c8.3 0 15 6.7 15 15v25.3c37.9-3.5 73.4-20.1 100.5-47.1 27.1-27.1 43.7-62.5 47.2-100.4h-25.3c-8.4 0-15.1-6.7-15.1-15s6.7-15 15-15h25.3c-3.5-37.9-20.1-73.4-47.2-100.4-27-27.2-62.4-43.7-100.4-47.3v25.3c0 8.3-6.7 15-15 15s-15-6.7-15-15V33.9C143.6 37.5 108.2 54 81.1 81.1 54 108.2 37.5 143.6 33.9 181.5h25.3c8.3 0 15 6.7 15 15s-6.7 15-15 15H33.9c3.5 37.9 20.1 73.4 47.2 100.4 27.1 27.1 62.5 43.6 100.4 47.2v-25.3c0-8.3 6.7-15 15-15z"></path>
        <path d="M196.5 10C93.5 10 10 93.5 10 196.5S93.5 383 196.5 383 383 299.5 383 196.5C382.9 93.6 299.5 10.2 196.5 10zm8 356.6v-32.8c0-4.4-3.6-8-8-8s-8 3.6-8 8v32.8c-87.7-4.2-157.9-74.4-162.1-162.1h32.8c4.4 0 8-3.6 8-8s-3.6-8-8-8H26.4c4.2-87.7 74.4-157.9 162.1-162.1v32.8c0 4.4 3.6 8 8 8s8-3.6 8-8V26.4c87.7 4.2 157.9 74.4 162.1 162.1h-32.8c-4.4 0-8 3.6-8 8s3.6 8 8 8h32.9c-4.2 87.8-74.4 158-162.2 162.1z"></path>
        <path d="M275.2 291.5c-4.1 0-7.9-1.6-10.7-4.5l-78.6-80c-2.8-2.8-4.3-6.5-4.3-10.5v-84c0-8.3 6.7-15 15-15s15 6.7 15 15v77.9L286 266c5.8 5.9 5.7 15.4-.2 21.2-2.9 2.8-6.7 4.3-10.6 4.3z"></path>
        <path d="M280.9 270.9l-76.4-77.7v-80.7c0-4.4-3.6-8-8-8s-8 3.6-8 8v84c0 2.1.8 4.1 2.3 5.6l78.6 80c3.1 3.2 8.2 3.2 11.3.1s3.3-8.1.2-11.3z"></path>
    </g>
</svg>