<svg style="fill: #935a4b;" preserveAspectRatio="xMidYMid meet" data-bbox="0 0 512 512" viewBox="0 0 512 512" xmlns="http://www.w3.org/2000/svg" data-type="shape" role="img" aria-labelledby="svgcid--jarvbg-jpwpbh"><title id="svgcid--jarvbg-jpwpbh"></title>
    <g>
        <path d="M377 0H135C60.561 0 0 60.561 0 135v30c0 24.813 20.187 45 45 45h60c24.813 0 45-20.187 45-45v-30c0-8.271 6.729-15 15-15h182c8.271 0 15 6.729 15 15v30c0 24.813 20.187 45 45 45h60c24.813 0 45-20.187 45-45v-30C512 60.561 451.439 0 377 0zM120 165c0 8.271-6.729 15-15 15H45c-8.271 0-15-6.729-15-15v-15h90v15zm227-75H165c-19.555 0-36.228 12.542-42.42 30H31.076C38.377 69.184 82.196 30 135 30h242c52.805 0 96.623 39.184 103.924 90H389.42c-6.192-17.458-22.865-30-42.42-30zm135 75c0 8.271-6.729 15-15 15h-60c-8.271 0-15-6.729-15-15v-15h90v15z"></path>
        <path d="M476.273 420.235c-81.711-198.652-76.809-186.951-77.671-188.388C390.516 218.372 375.73 210 360.015 210H332v-15c0-24.813-20.187-45-45-45h-62c-24.813 0-45 20.187-45 45v15h-28.014c-19.429 0-35.227 13.231-39.597 23.859L35.748 420.183A74.625 74.625 0 0030 448.977V467c0 24.813 20.187 45 45 45h362c24.813 0 45-20.187 45-45v-18.023a74.543 74.543 0 00-5.727-28.742zM210 195c0-8.271 6.729-15 15-15h62c8.271 0 15 6.729 15 15v15h-92v-15zm242 272c0 8.271-6.729 15-15 15H75c-8.271 0-15-6.729-15-15v-18.023c0-5.96 1.16-11.773 3.47-17.33l76.159-185.149c2.778-4.03 7.43-6.498 12.357-6.498h208.029c4.926 0 9.578 2.468 12.356 6.498l76.181 185.203A44.772 44.772 0 01452 448.977V467z"></path>
        <path d="M257 270c-49.626 0-90 40.374-90 90s40.374 90 90 90 90-40.374 90-90-40.374-90-90-90zm0 150c-33.084 0-60-26.916-60-60s26.916-60 60-60 60 26.916 60 60-26.916 60-60 60z"></path>
        <path d="M257 330c-16.542 0-30 13.458-30 30s13.458 30 30 30 30-13.458 30-30-13.458-30-30-30z"></path>
    </g>
</svg>